<svg width="97" height="70" viewBox="0 0 97 70" fill="none" xmlns="http://www.w3.org/2000/svg">
<path d="M7.23156 16.2363C6.57098 16.3059 6.04946 16.4797 5.73656 16.584C5.63225 16.6188 5.59749 16.6535 5.52795 16.6883C5.52795 16.6883 5.52795 16.6883 5.52795 16.7231C5.70179 17.0012 6.119 17.4532 6.74482 17.9399L16.8274 25.7626C17.5575 26.3537 18.2529 27.0143 18.9135 27.7444L74.9241 7.33582L7.23156 16.2363Z" fill="white"/>
<path d="M39.913 42.9729L49.8565 50.448C50.9343 51.2824 52.2207 51.6648 53.4724 51.6648C54.4111 51.6648 55.3151 51.4562 56.1495 51.039C56.9839 50.6218 57.714 50.0308 58.3398 49.2311L85.9105 12.1341L39.322 42.5905C39.4958 42.7296 39.7044 42.8339 39.913 42.9729Z" fill="white"/>
<path d="M36.6105 47.319C35.637 46.5889 34.8026 46.3455 34.1768 46.3455C33.5857 46.3455 33.1685 46.5194 32.7165 46.9018C32.2645 47.2842 31.8126 47.9796 31.4996 49.0574L28.6835 59.3834L40.8521 50.4829L36.6105 47.319Z" fill="#96C9E4"/>
<path d="M22.4946 32.2648L22.1817 32.3691C23.0857 34.0379 23.8158 35.8111 24.3026 37.5842C24.7198 39.114 24.9631 40.6438 24.9631 42.1388L25.0327 52.0823L26.2495 47.6321C26.7363 45.8589 27.6055 44.3291 28.8223 43.147L30.213 42.0345C30.2478 41.9997 30.2826 41.9997 30.3173 41.9649L32.8206 40.3309L73.8116 13.5598L22.4946 32.2648Z" fill="#CFE1EF"/>
<path d="M95.5066 2.99001C95.2284 2.43373 94.846 1.94698 94.4288 1.56454C93.7682 0.973492 93.0033 0.556281 92.2037 0.347676C91.404 0.104303 90.5696 0 89.7004 0C89.1441 0 88.5878 0.0347739 88.0315 0.104309L6.57108 10.8127C5.73666 10.917 4.937 11.0909 4.20688 11.3342C3.12909 11.7167 2.12082 12.273 1.32117 13.1074C0.903958 13.5246 0.591049 14.0461 0.347676 14.6372C0.104303 15.1934 0 15.8193 0 16.4451C0 17.0361 0.104306 17.6272 0.312911 18.1835C0.591052 18.9831 1.04303 19.7132 1.56454 20.3738C2.08606 21.0344 2.74664 21.6254 3.47676 22.2165L13.5594 30.0392C14.2895 30.5955 15.0544 31.3951 15.7845 32.3339C16.8623 33.7593 17.8358 35.4977 18.4964 37.2361C19.1569 38.9745 19.5394 40.7476 19.5394 42.1383L19.6785 62.9293C19.6785 63.5899 19.7132 64.2157 19.748 64.772C19.7828 65.1892 19.8175 65.5717 19.8871 65.9193C19.9218 66.1975 19.9914 66.4409 20.0609 66.719C20.1652 67.1362 20.3043 67.5534 20.6867 68.0749C20.8606 68.3531 21.1387 68.6312 21.5559 68.9094C21.9731 69.1875 22.5642 69.3613 23.1552 69.3613C23.8158 69.3613 24.3721 69.1527 24.7545 68.9094C24.8241 68.8746 24.8588 68.8398 24.8936 68.805L24.9284 68.8398L45.4065 53.855L46.5886 54.7589C48.6399 56.3235 51.1084 57.0536 53.5073 57.0536C55.2457 57.0536 57.0188 56.6712 58.5834 55.8715C60.1827 55.1066 61.6082 53.9245 62.7207 52.4295L94.0463 10.326C94.6374 9.52632 95.1241 8.6919 95.4718 7.85748C95.8195 7.02305 96.0281 6.15386 96.0281 5.21514C96.0281 4.51979 95.8542 3.72013 95.5066 2.99001ZM56.1497 51.0388C55.3152 51.456 54.3765 51.6646 53.4726 51.6646C52.1862 51.6646 50.9345 51.2822 49.8567 50.4478L39.9132 42.9727C39.7394 42.8337 39.5307 42.7294 39.3221 42.5903L85.9107 12.1339L58.34 49.2309C57.749 50.0306 56.9841 50.6216 56.1497 51.0388ZM24.9631 42.1383C24.9631 40.6433 24.7198 39.1135 24.3025 37.5838C23.8158 35.8106 23.0857 34.0375 22.1817 32.3686L22.4946 32.2643L73.8116 13.5594L32.8206 40.3652L30.3173 41.9992L30.213 42.0688L28.8223 43.1813C27.6055 44.3634 26.7363 45.8932 26.2495 47.6664L25.0327 52.1166L24.9631 42.1383ZM16.8623 25.7628L6.77968 17.9401C6.15386 17.4533 5.73665 17.0014 5.56281 16.7232C5.56281 16.7232 5.56281 16.7232 5.56281 16.6884C5.63235 16.6537 5.66712 16.6189 5.77142 16.5841C6.08433 16.4451 6.60584 16.306 7.26643 16.2365L74.9937 7.33596L18.9831 27.7445C18.2878 27.0492 17.5924 26.3538 16.8623 25.7628ZM28.6833 59.383L31.4994 49.0571C31.8123 47.9793 32.2643 47.2839 32.7163 46.9015C33.1683 46.519 33.6203 46.3452 34.1765 46.3452C34.8024 46.3452 35.6368 46.5886 36.6103 47.3187L40.8172 50.4825L28.6833 59.383Z" fill="url(#paint0_linear_2_26)"/>
<defs>
<linearGradient id="paint0_linear_2_26" x1="2.02876" y1="-2.20255e-05" x2="95.1571" y2="7.41172" gradientUnits="userSpaceOnUse">
<stop offset="0.206287" stop-color="#4F9CFF"/>
<stop offset="0.940271" stop-color="#A483E2"/>
</linearGradient>
</defs>
</svg>
